<?xml version="1.0" encoding="iso-8859-1"?><!DOCTYPE svg PUBLIC "-//W3C//DTD SVG 1.1//EN" "http://www.w3.org/Graphics/SVG/1.1/DTD/svg11.dtd"><svg version="1.1" id="US_UK_Download_on_the" xmlns="http://www.w3.org/2000/svg" xmlns:xlink="http://www.w3.org/1999/xlink" x="0px" y="0px" width="135px" height="40px" viewBox="0 0 135 40" style="enable-background:new 0 0 135 40;" xml:space="preserve"><path d="M129.975,40h-125c-2.75,0-5-2.25-5-5V5c0-2.75,2.25-5,5-5h125c2.75,0,5,2.25,5,5v30C134.975,37.75,132.725,40,129.975,40"/><path style="fill:#A6A5A5;" d="M129.975,0.8c2.316,0,4.2,1.884,4.2,4.2v30c0,2.316-1.884,4.2-4.2,4.2h-125c-2.316,0-4.2-1.884-4.2-4.2V5c0-2.316,1.884-4.2,4.2-4.2H129.975 M129.975,0h-125c-2.75,0-5,2.25-5,5v30c0,2.75,2.25,5,5,5h125c2.75,0,5-2.25,5-5V5C134.975,2.25,132.725,0,129.975,0z"/><path style="fill:#FFFFFF;" d="M47.394,10.243c0,0.838-0.249,1.506-0.746,2.003c-0.564,0.592-1.299,0.888-2.204,0.888c-0.866,0-1.602-0.3-2.208-0.901c-0.606-0.6-0.909-1.345-0.909-2.233c0-0.889,0.303-1.633,0.909-2.233c0.606-0.601,1.342-0.901,2.208-0.901c0.43,0,0.841,0.084,1.232,0.251c0.39,0.168,0.704,0.391,0.938,0.671l-0.527,0.527c-0.398-0.474-0.944-0.711-1.643-0.711c-0.632,0-1.177,0.221-1.638,0.666c-0.461,0.444-0.692,1.021-0.692,1.73s0.231,1.286,0.692,1.73c0.461,0.445,1.006,0.666,1.638,0.666c0.67,0,1.229-0.223,1.676-0.669c0.29-0.291,0.458-0.696,0.503-1.216h-2.179v-0.72h2.908C47.38,9.947,47.394,10.098,47.394,10.243"/><path style="fill:#FFFFFF;" d="M47.394,10.243h-0.1c-0.001,0.819-0.24,1.455-0.716,1.932l-0.001,0.001l-0.001,0.001c-0.546,0.571-1.249,0.856-2.132,0.857c-0.843-0.001-1.548-0.289-2.137-0.872c-0.588-0.583-0.879-1.296-0.88-2.162c0.001-0.866,0.292-1.579,0.88-2.162c0.589-0.583,1.294-0.871,2.137-0.872c0.417,0,0.814,0.081,1.192,0.243c0.379,0.163,0.679,0.377,0.902,0.643l0.076-0.064l-0.071-0.071l-0.527,0.528l0.071,0.07l0.076-0.064c-0.415-0.498-0.999-0.749-1.719-0.747c-0.655-0.001-1.231,0.233-1.708,0.694C42.255,8.66,42.013,9.269,42.014,10c-0.001,0.731,0.241,1.34,0.722,1.802c0.477,0.461,1.053,0.695,1.708,0.695c0.692,0.001,1.282-0.234,1.747-0.7c0.31-0.311,0.486-0.741,0.532-1.277l0.009-0.109h-2.188V9.89h2.808V9.791l-0.099,0.017c0.027,0.152,0.041,0.296,0.041,0.435h0.2c0-0.152-0.015-0.308-0.044-0.47l-0.015-0.082h-3.091v0.92h2.279v-0.1l-0.1-0.008c-0.044,0.503-0.204,0.882-0.474,1.153c-0.43,0.428-0.957,0.64-1.605,0.641c-0.608-0.001-1.124-0.211-1.569-0.638c-0.441-0.427-0.66-0.971-0.661-1.659c0.001-0.688,0.22-1.232,0.661-1.659c0.445-0.427,0.961-0.637,1.569-0.637c0.677,0.001,1.187,0.225,1.566,0.676l0.07,0.083l0.605-0.605l0.065-0.064l-0.059-0.071c-0.246-0.293-0.574-0.525-0.976-0.698c-0.403-0.172-0.828-0.259-1.271-0.259c-0.889-0.001-1.656,0.311-2.278,0.93c-0.625,0.617-0.94,1.393-0.939,2.304c-0.001,0.911,0.314,1.687,0.939,2.305c0.622,0.618,1.389,0.93,2.278,0.929c0.926,0.001,1.694-0.307,2.277-0.919l-0.073-0.069l0.071,0.071c0.518-0.518,0.775-1.217,0.775-2.074H47.394"/><polyline style="fill:#FFFFFF;" points="52.003,7.737 49.27,7.737 49.27,9.64 51.734,9.64 51.734,10.36 49.27,10.36 49.27,12.263 52.003,12.263 52.003,13 48.5,13 48.5,7 52.003,7 52.003,7.737 "/><polyline style="fill:#FFFFFF;" points="52.003,7.737 52.003,7.637 49.17,7.637 49.17,9.74 51.634,9.74 51.634,10.26 49.17,10.26 49.17,12.363 51.903,12.363 51.903,12.9 48.6,12.9 48.6,7.1 51.903,7.1 51.903,7.737 52.003,7.737 52.003,7.637 52.003,7.737 52.103,7.737 52.103,6.9 48.4,6.9 48.4,13.1 52.103,13.1 52.103,12.163 49.37,12.163 49.37,10.46 51.834,10.46 51.834,9.54 49.37,9.54 49.37,7.837 52.103,7.837 52.103,7.737 52.003,7.737 "/><polyline style="fill:#FFFFFF;" points="55.254,13 54.482,13 54.482,7.737 52.807,7.737 52.807,7 56.93,7 56.93,7.737 55.254,7.737 55.254,13 "/><polyline style="fill:#FFFFFF;" points="55.254,13 55.254,12.9 54.582,12.9 54.582,7.637 52.906,7.637 52.906,7.1 56.83,7.1 56.83,7.637 55.154,7.637 55.154,13 55.254,13 55.254,12.9 55.254,13 55.354,13 55.354,7.837 57.03,7.837 57.03,6.9 52.706,6.9 52.706,7.837 54.382,7.837 54.382,13.1 55.354,13.1 55.354,13 55.254,13 "/><rect x="59.913" y="7" style="fill:#FFFFFF;" width="0.771" height="6"/><polyline style="fill:#FFFFFF;" points="59.913,13 60.013,13 60.013,7.1 60.583,7.1 60.583,12.9 59.913,12.9 59.913,13 60.013,13 59.913,13 59.913,13.1 60.784,13.1 60.784,6.9 59.813,6.9 59.813,13.1 59.913,13.1 59.913,13 "/><polyline style="fill:#FFFFFF;" points="64.103,13 63.332,13 63.332,7.737 61.656,7.737 61.656,7 65.779,7 65.779,7.737 64.103,7.737 64.103,13 "/><polyline style="fill:#FFFFFF;" points="64.103,13 64.103,12.9 63.432,12.9 63.432,7.637 61.756,7.637 61.756,7.1 65.679,7.1 65.679,7.637 64.003,7.637 64.003,13 64.103,13 64.103,12.9 64.103,13 64.203,13 64.203,7.837 65.879,7.837 65.879,6.9 61.556,6.9 61.556,7.837 63.232,7.837 63.232,13.1 64.203,13.1 64.203,13 64.103,13 "/><path style="fill:#FFFFFF;" d="M73.584,12.225c-0.589,0.606-1.323,0.909-2.2,0.909s-1.61-0.303-2.199-0.909c-0.59-0.606-0.884-1.348-0.884-2.225s0.294-1.619,0.884-2.225c0.589-0.606,1.322-0.909,2.199-0.909c0.872,0,1.604,0.304,2.196,0.913S74.468,9.128,74.468,10C74.468,10.877,74.173,11.619,73.584,12.225 M69.754,11.722c0.445,0.45,0.988,0.674,1.63,0.674c0.643,0,1.187-0.224,1.63-0.674c0.444-0.45,0.667-1.024,0.667-1.722s-0.223-1.272-0.667-1.722c-0.443-0.45-0.987-0.674-1.63-0.674c-0.642,0-1.185,0.224-1.63,0.674c-0.443,0.45-0.666,1.024-0.666,1.722S69.311,11.272,69.754,11.722z"/><path style="fill:#FFFFFF;" d="M73.584,12.225l-0.071-0.07c-0.573,0.588-1.275,0.878-2.129,0.879c-0.854-0.001-1.555-0.291-2.127-0.879l-0.003-0.003l0.003,0.003c-0.572-0.589-0.855-1.3-0.856-2.155c0.001-0.855,0.284-1.566,0.856-2.155c0.572-0.588,1.273-0.878,2.127-0.879c0.849,0.001,1.548,0.293,2.125,0.883c0.574,0.592,0.858,1.302,0.859,2.151c-0.001,0.855-0.284,1.566-0.855,2.155l0.143,0.139c0.607-0.622,0.913-1.395,0.912-2.294c0.001-0.894-0.307-1.665-0.916-2.29c-0.609-0.628-1.373-0.945-2.268-0.944c-0.9-0.001-1.665,0.315-2.271,0.94C68.506,8.329,68.2,9.101,68.201,10c-0.001,0.899,0.305,1.672,0.912,2.294l0.003,0.003l-0.003-0.003c0.606,0.626,1.371,0.941,2.271,0.94c0.9,0.001,1.666-0.314,2.272-0.94L73.584,12.225 M69.754,11.722l-0.071,0.07c0.461,0.468,1.035,0.706,1.701,0.705c0.666,0.001,1.241-0.237,1.701-0.705c0.464-0.467,0.697-1.073,0.696-1.792c0.001-0.719-0.232-1.324-0.696-1.792c-0.46-0.468-1.035-0.705-1.701-0.704c-0.666-0.001-1.24,0.236-1.701,0.704C69.221,8.676,68.987,9.281,68.988,10c-0.001,0.719,0.233,1.325,0.695,1.792l0.143-0.14c-0.425-0.431-0.637-0.975-0.638-1.652c0.001-0.677,0.213-1.221,0.638-1.652h-0.001c0.429-0.432,0.94-0.643,1.559-0.644c0.62,0.001,1.132,0.212,1.559,0.644C73.368,8.78,73.58,9.323,73.581,10c-0.001,0.677-0.213,1.22-0.638,1.652c-0.427,0.432-0.939,0.644-1.559,0.645c-0.619-0.002-1.13-0.213-1.559-0.645L69.754,11.722z"/><polyline style="fill:#FFFFFF;" points="75.55,13 75.55,7 76.489,7 79.405,11.667 79.438,11.667 79.405,10.511 79.405,7 80.176,7 80.176,13 79.371,13 76.321,8.106 76.287,8.106 76.321,9.263 76.321,13 75.55,13 "/><polyline style="fill:#FFFFFF;" points="75.55,13 75.65,13 75.65,7.1 76.433,7.1 79.349,11.768 79.541,11.768 79.505,10.51 79.505,7.1 80.076,7.1 80.076,12.9 79.427,12.9 76.376,8.006 76.185,8.006 76.221,9.264 76.221,12.9 75.55,12.9 75.55,13 75.65,13 75.55,13 75.55,13.1 76.421,13.1 76.421,9.261 76.387,8.104 76.287,8.106 76.287,8.206 76.321,8.206 76.321,8.106 76.236,8.159 79.316,13.1 80.276,13.1 80.276,6.9 79.305,6.9 79.305,10.513 79.338,11.67 79.438,11.667 79.438,11.568 79.405,11.568 79.405,11.667 79.49,11.615 76.544,6.9 75.45,6.9 75.45,13.1 75.55,13.1 75.55,13 "/><path style="fill:#FFFFFF;" d="M68.111,21.752c-2.352,0-4.269,1.788-4.269,4.253c0,2.448,1.917,4.253,4.269,4.253s4.269-1.805,4.269-4.253C72.38,23.54,70.463,21.752,68.111,21.752 M68.111,28.582c-1.289,0-2.401-1.063-2.401-2.577c0-1.531,1.112-2.578,2.401-2.578s2.4,1.047,2.4,2.578C70.511,27.519,69.4,28.582,68.111,28.582z M58.798,21.752c-2.353,0-4.27,1.788-4.27,4.253c0,2.448,1.917,4.253,4.27,4.253c2.352,0,4.269-1.805,4.269-4.253C63.067,23.54,61.15,21.752,58.798,21.752z M58.798,28.582c-1.289,0-2.401-1.063-2.401-2.577c0-1.531,1.112-2.578,2.401-2.578c1.288,0,2.4,1.047,2.4,2.578C61.198,27.519,60.086,28.582,58.798,28.582z M47.719,23.057v1.804h4.317c-0.129,1.015-0.467,1.756-0.982,2.272c-0.629,0.628-1.612,1.32-3.335,1.32c-2.658,0-4.737-2.142-4.737-4.8c0-2.659,2.079-4.801,4.737-4.801c1.434,0,2.481,0.564,3.254,1.289l1.273-1.273c-1.08-1.031-2.513-1.821-4.527-1.821c-3.641,0-6.702,2.965-6.702,6.606s3.061,6.605,6.702,6.605c1.965,0,3.447-0.644,4.607-1.853c1.192-1.192,1.563-2.867,1.563-4.221c0-0.419-0.032-0.805-0.097-1.127H47.719z M93.027,24.458c-0.354-0.95-1.434-2.706-3.641-2.706c-2.191,0-4.011,1.723-4.011,4.253c0,2.384,1.804,4.253,4.22,4.253c1.95,0,3.078-1.192,3.545-1.885l-1.45-0.967c-0.483,0.709-1.144,1.176-2.095,1.176c-0.95,0-1.627-0.435-2.062-1.288l5.687-2.352L93.027,24.458z M87.227,25.876c-0.048-1.643,1.273-2.481,2.223-2.481c0.742,0,1.37,0.37,1.579,0.902L87.227,25.876z M82.604,30h1.869V17.498h-1.869V30z M79.542,22.702h-0.064c-0.419-0.499-1.224-0.95-2.239-0.95c-2.127,0-4.076,1.868-4.076,4.269c0,2.384,1.949,4.237,4.076,4.237c1.015,0,1.82-0.451,2.239-0.967h0.064v0.612c0,1.628-0.869,2.498-2.271,2.498c-1.144,0-1.853-0.822-2.143-1.515l-1.627,0.677c0.467,1.128,1.708,2.513,3.77,2.513c2.191,0,4.044-1.289,4.044-4.43v-7.637h-1.773V22.702z M77.4,28.582c-1.289,0-2.368-1.079-2.368-2.561c0-1.498,1.079-2.594,2.368-2.594c1.273,0,2.271,1.096,2.271,2.594C79.671,27.503,78.673,28.582,77.4,28.582z M101.781,17.499H97.31V30h1.865v-4.736h2.606c2.068,0,4.101-1.498,4.101-3.883S103.849,17.499,101.781,17.499z M101.829,23.524h-2.654v-4.285h2.654c1.395,0,2.187,1.155,2.187,2.142C104.016,22.35,103.224,23.524,101.829,23.524z M113.361,21.729c-1.351,0-2.75,0.595-3.329,1.914l1.656,0.691c0.354-0.691,1.013-0.917,1.705-0.917c0.965,0,1.946,0.579,1.962,1.609v0.128c-0.338-0.193-1.061-0.482-1.946-0.482c-1.785,0-3.603,0.981-3.603,2.814c0,1.673,1.464,2.751,3.104,2.751c1.255,0,1.946-0.563,2.381-1.223h0.064v0.965h1.801v-4.792C117.156,22.967,115.5,21.729,113.361,21.729z M113.136,28.58c-0.612,0-1.464-0.305-1.464-1.061c0-0.965,1.062-1.335,1.978-1.335c0.821,0,1.206,0.177,1.705,0.418C115.21,27.76,114.213,28.58,113.136,28.58z M123.718,22.002l-2.139,5.42h-0.064l-2.22-5.42h-2.01l3.329,7.575l-1.898,4.214h1.947l5.13-11.789H123.718z M106.911,30h1.866V17.499h-1.866V30z"/><path style="fill:#5DC7F2;" d="M10.41,7.547c-0.291,0.308-0.462,0.785-0.462,1.404v22.098c0,0.619,0.171,1.096,0.462,1.404l0.074,0.072l12.379-12.379v-0.292L10.484,7.475L10.41,7.547"/><g><g><defs><path id="SVGID_1_" d="M26.988,24.274l-4.125-4.128v-0.292l4.127-4.127l4.982,2.83c1.396,0.794,1.396,2.092,0,2.885l-4.889,2.778L26.988,24.274"/></defs><clipPath id="SVGID_2_"><use xlink:href="#SVGID_1_"  style="overflow:visible;"/></clipPath><linearGradient id="SVGID_3_" gradientUnits="userSpaceOnUse" x1="-453.4294" y1="457.3823" x2="-452.4294" y2="457.3823" gradientTransform="matrix(-24.1769 0 0 -24.1769 -10931.4551 11078.0859)"><stop  offset="0" style="stop-color:#FCDF00"/><stop  offset="0.1707" style="stop-color:#FAD00C"/><stop  offset="0.5375" style="stop-color:#F8B218"/><stop  offset="0.8265" style="stop-color:#F9A11C"/><stop  offset="1" style="stop-color:#F89A1F"/></linearGradient><rect x="22.863" y="15.727" style="clip-path:url(#SVGID_2_);fill:url(#SVGID_3_);" width="10.505" height="8.547"/></g></g><g><g><defs><path id="SVGID_4_" d="M27.083,24.22L22.863,20L10.41,32.453c0.461,0.487,1.221,0.547,2.077,0.061L27.083,24.22"/></defs><clipPath id="SVGID_5_"><use xlink:href="#SVGID_4_"  style="overflow:visible;"/></clipPath><linearGradient id="SVGID_6_" gradientUnits="userSpaceOnUse" x1="-440.9761" y1="459.4909" x2="-439.9761" y2="459.4909" gradientTransform="matrix(-22.7394 22.7394 -22.7394 -22.7394 444.8875 20497.4551)"><stop  offset="0" style="stop-color:#EE4547"/><stop  offset="1" style="stop-color:#C51C6D"/></linearGradient><polygon style="clip-path:url(#SVGID_5_);fill:url(#SVGID_6_);" points="33.583,26.5 18.746,41.337 3.91,26.5 18.746,11.664 "/></g></g><g><g><defs><path id="SVGID_7_" d="M27.083,15.78L12.487,7.486C11.631,7,10.871,7.06,10.41,7.547L22.863,20L27.083,15.78"/></defs><clipPath id="SVGID_8_"><use xlink:href="#SVGID_7_"  style="overflow:visible;"/></clipPath><linearGradient id="SVGID_9_" gradientUnits="userSpaceOnUse" x1="-428.0174" y1="476.2531" x2="-427.0174" y2="476.2531" gradientTransform="matrix(18.5663 18.5663 -18.5663 18.5663 16789.9863 -899.7737)"><stop  offset="0" style="stop-color:#269E6F"/><stop  offset="0.3166" style="stop-color:#4CA96C"/><stop  offset="0.7397" style="stop-color:#6AB96A"/><stop  offset="1" style="stop-color:#74C16A"/></linearGradient><polygon style="clip-path:url(#SVGID_8_);fill:url(#SVGID_9_);" points="18.746,-1.337 33.583,13.5 18.746,28.336 3.91,13.5 "/></g></g></svg>